<svg width="64" height="85" viewBox="0 0 64 85" fill="none" xmlns="http://www.w3.org/2000/svg">
<rect width="64" height="64" fill="black"/>
<path d="M51.6636 56.1435C49.2291 56.1435 47.3271 54.2505 47.3271 51.5922C47.3271 48.8534 49.2291 47.0812 51.6636 47.0812C54.1361 47.0812 56 48.8534 56 51.5922C56 54.2505 54.1361 56.1435 51.6636 56.1435Z" fill="white"/>
<path d="M37.0257 33.0181C42.8266 33.0181 47.5226 37.5099 47.5226 44.7304C47.5226 51.9929 42.8266 56.5267 37.0257 56.5267C34.2238 56.5267 32.1324 55.6871 30.7117 53.882V56.1489H23.5691V25H31.0669V35.369C32.527 33.7737 34.5395 33.0181 37.0257 33.0181ZM35.4472 50.1878C37.9727 50.1878 39.9458 48.2147 39.9458 44.7304C39.9458 41.2881 37.9727 39.357 35.4472 39.357C32.9216 39.357 30.9485 41.2881 30.9485 44.7304C30.9485 48.2147 32.9216 50.1878 35.4472 50.1878Z" fill="white"/>
<path d="M13.4566 32.8712C19.2575 32.8712 23.9535 37.3838 23.9535 44.5706C23.9535 51.7574 19.2575 56.27 13.4566 56.27C10.9705 56.27 8.95789 55.4761 7.49779 53.8883V64H0V33.2472H7.14263V35.5035C8.56327 33.7068 10.6548 32.8712 13.4566 32.8712ZM11.8781 49.9607C14.4037 49.9607 16.3768 47.9968 16.3768 44.5706C16.3768 41.1443 14.4037 39.1805 11.8781 39.1805C9.35251 39.1805 7.3794 41.1443 7.3794 44.5706C7.3794 47.9968 9.35251 49.9607 11.8781 49.9607Z" fill="white"/>
<path d="M58.6867 84.744C55.6199 84.744 53.3735 82.694 53.3735 79.872C53.3735 77.05 55.6199 75 58.6867 75C61.7536 75 64 77.05 64 79.872C64 82.694 61.7536 84.744 58.6867 84.744ZM58.6867 82.2015C59.857 82.2015 60.7986 81.323 60.7986 79.872C60.7986 78.4211 59.857 77.5425 58.6867 77.5425C57.5165 77.5425 56.5749 78.4211 56.5749 79.872C56.5749 81.323 57.5165 82.2015 58.6867 82.2015Z" fill="black"/>
<path d="M47.1646 84.531V75.213H50.339V84.531H47.1646Z" fill="black"/>
<path d="M34.1682 84.531V75.213H38.8089C41.9564 75.213 44.1221 76.9834 44.1221 79.872C44.1221 82.7606 41.9564 84.531 38.8089 84.531H34.1682ZM37.3427 82.0817H38.6744C40.006 82.0817 40.9207 81.2963 40.9207 79.872C40.9207 78.4477 40.006 77.6623 38.6744 77.6623H37.3427V82.0817Z" fill="black"/>
<path d="M26.2431 84.744C23.3511 84.744 21.6562 83.1333 21.6562 80.3379V75.213H24.8307V80.2447C24.8307 81.6691 25.3822 82.2015 26.27 82.2015C27.1578 82.2015 27.7093 81.6691 27.7093 80.2447V75.213H30.8299V80.3379C30.8299 83.1333 29.1351 84.744 26.2431 84.744Z" fill="black"/>
<path d="M13.2287 84.531V77.649H10.4712V75.213H19.1606V77.649H16.4032V84.531H13.2287Z" fill="black"/>
<path d="M4.1026 84.744C2.52882 84.744 0.941581 84.358 0 83.7856L1.02229 81.496C1.91006 82.0152 3.09377 82.3479 4.12951 82.3479C5.03073 82.3479 5.35356 82.1616 5.35356 81.8421C5.35356 80.6707 0.147963 81.6158 0.147963 78.1415C0.147963 76.411 1.61414 75 4.53304 75C5.79745 75 7.10221 75.2662 8.08415 75.812L7.12912 78.0883C6.20099 77.6224 5.32666 77.3961 4.50614 77.3961C3.57801 77.3961 3.28208 77.6623 3.28208 77.9818C3.28208 79.0999 8.48768 78.1681 8.48768 81.6025C8.48768 83.3064 7.02151 84.744 4.1026 84.744Z" fill="black"/>
</svg>
